HIERARCHY
ROOT pelvis
{
  OFFSET 0 100 0
  CHANNELS 6 Xposition Yposition Zposition Zrotation Xrotation Yrotation
  JOINT pelvis_right_femur
  {
    OFFSET -10.78128 -3.44521 -0.5502486
    CHANNELS 3 Zrotation Xrotation Yrotation
    JOINT right_femur_tibia
    {
      OFFSET -0.8047443 -44.0398 -0.1307829
      CHANNELS 3 Zrotation Xrotation Yrotation
      JOINT right_tibia_foot
      {
        OFFSET 3.006224 -47.83518 -5
        CHANNELS 3 Zrotation Xrotation Yrotation
        End Site
        {
          OFFSET 0 -5 15
        }
      }
    }
  }
  JOINT pelvis_left_femur
  {
    OFFSET 10.78128 -3.44521 -0.5502486
    CHANNELS 3 Zrotation Xrotation Yrotation
    JOINT left_femur_tibia
    {
      OFFSET 0.8047443 -44.0398 -0.1307829
      CHANNELS 3 Zrotation Xrotation Yrotation
      JOINT left_tibia_foot
      {
        OFFSET -4.370144 -48.10324 -4.275266
        CHANNELS 3 Zrotation Xrotation Yrotation
        End Site
        {
          OFFSET 0 -5 15
        }
      }
    }
  }
  JOINT pelvis_spine1
  {
    OFFSET 0 6.468898 -3.129235
    CHANNELS 3 Zrotation Xrotation Yrotation
    JOINT spine1
    {
      OFFSET 0 23.15396 4.99043
      CHANNELS 3 Zrotation Xrotation Yrotation
      JOINT spine2
      {
        OFFSET 0 20.79997 -5.064912
        CHANNELS 3 Zrotation Xrotation Yrotation
        JOINT neck
        {
          OFFSET 0 14.38658 9.616178
          CHANNELS 3 Zrotation Xrotation Yrotation
          End Site
          {
            OFFSET 0 20 0
          }
        }
      }
      JOINT right_manubrium
      {
        OFFSET -5.722621 16.35077 3.967754
        CHANNELS 3 Zrotation Xrotation Yrotation
        JOINT right_clavicle
        {
          OFFSET -13.16364 1.694482 -4.693211
          CHANNELS 3 Zrotation Xrotation Yrotation
          JOINT right_humerus
          {
            OFFSET -28.5034 -0.3100689 -2.792744
            CHANNELS 3 Zrotation Xrotation Yrotation
            JOINT right_radius
            {
              OFFSET -25.15693 0.02248979 -1.271978
              CHANNELS 3 Zrotation Xrotation Yrotation
              End Site
              {
                OFFSET -15 0 0
              }
            }
          }
        }
      }
      JOINT left_manubrium
      {
        OFFSET 5.722621 16.35077 3.967754
        CHANNELS 3 Zrotation Xrotation Yrotation
        JOINT left_clavicle
        {
          OFFSET 13.16364 1.694482 -4.693211
          CHANNELS 3 Zrotation Xrotation Yrotation
          JOINT left_humerus
          {
            OFFSET 29.39168 -1.063119 -2.237045
            CHANNELS 3 Zrotation Xrotation Yrotation
            JOINT left_radius
            {
              OFFSET 24.59957 -0.9528479 0.9047498
              CHANNELS 3 Zrotation Xrotation Yrotation
              End Site
              {
                OFFSET 15 -0 -0
              }
            }
          }
        }
      }
    }
  }
}
MOTION
Frames: 7
Frame Time: 0.0416666666667
0 103.5113 0 0.6819453 -0.774458 -0.2160564 5.283909 -17.73534 10.9269 -0 39.67988 -0 -5.294966 -16.40493 -1.592564 -7.708908 9.174669 -24.36165 -0 5.638552 -0 14.54475 -15.76572 31.808 -3.752616 -3.780154 5.516892 2.428284 10.2164 -6.514348 2.235795 22.2371 6.179804 2.931436 -24.95642 10.31683 6.288898 -20.77052 11.87417 83.88339 34.7931 -15.83201 -0 0 17.4846 -5.011996 7.103851 3.086416 6.351482 -18.93193 -1.093661 -94.90636 22.57915 22.94813 0 0 -13.31945 15.13778 17.34362 -3.85109
0.4613944 103.9768 1.455819 0.6293656 -0.6003249 -0.4387858 5.467307 -18.36277 10.80585 -0 38.68522 -0 -5.071508 -16.17318 -1.534743 -7.661557 9.48173 -24.03323 -0 5.816129 -0 14.67732 -15.80186 31.59679 -3.643683 -3.875746 5.564078 2.420721 10.26239 -6.559782 2.274865 22.10242 6.144702 2.87183 -24.97055 10.37084 6.091383 -20.7496 11.80839 84.07859 34.48041 -16.04434 -0 0 17.44671 -5.143495 7.23802 3.001646 6.477899 -19.08986 -1.122777 -94.57124 22.01589 22.59585 0 0 -13.70295 15.71935 17.08165 -4.553159
0.8208661 104.276 3.304503 0.444392 -0.2047699 -0.5476092 5.359755 -20.9993 9.075212 -0 34.42714 -0 -5.907353 -13.73606 -1.625555 -7.194221 10.91 -22.69774 -0 5.639621 -0 12.68108 -17.12124 29.05672 -3.39812 -3.509372 4.928517 2.513066 10.09784 -7.026009 1.939755 22.03825 6.460576 3.099072 -24.95672 9.976723 5.685254 -20.21223 11.67967 85.33647 34.28884 -17.73978 -0 0 15.88571 -6.485189 7.49709 3.788902 6.630481 -20.0096 -1.662295 -93.46898 23.00751 21.23578 0 0 -16.11345 13.92808 16.97899 -2.310903
1.123595 104.4789 5.460393 0.2473415 0.4307397 -0.5839175 5.510555 -22.88816 8.27817 -0 31.19167 -0 -6.025945 -12.63619 -1.665475 -6.88548 11.66406 -21.81911 -0 5.707717 -0 11.26701 -17.93436 27.29788 -3.15588 -3.341954 4.658274 2.626821 9.89589 -7.363717 1.747724 21.81683 6.664612 3.18841 -25.13128 9.833295 5.493704 -19.90122 11.566 85.94922 34.40381 -18.80348 -0 0 15.21771 -7.053076 7.789823 4.114061 6.702309 -20.45068 -1.839657 -92.89848 23.70302 20.67362 0 0 -17.75788 12.65522 16.69655 -0.6682131
1.371742 104.5761 7.987794 0.05546158 0.9705521 -0.5571131 5.683513 -24.78265 7.438963 -0 27.89492 -0 -6.1006 -11.38422 -1.666412 -6.606971 12.52594 -20.81506 -0 6.19827 -0 10.09321 -18.52477 25.61312 -2.87392 -3.247825 4.432129 2.696799 9.789288 -7.656784 1.618061 21.58781 6.795224 3.231593 -25.22602 9.714488 5.170737 -19.59004 11.43488 86.6581 34.17847 -19.83733 -0 0 14.507 -7.711404 8.10274 4.376993 6.838469 -20.96216 -2.053319 -92.14416 23.83311 19.8645 0 0 -19.3382 12.04749 16.3154 0.1460971
1.574004 104.6021 10.90678 -0.1633116 1.579385 -0.4784794 5.94961 -26.54251 6.765651 -0 24.72164 -0 -6.07532 -10.27327 -1.642032 -6.354951 13.26175 -19.83848 -0 7.103716 -0 8.99169 -18.92016 23.9852 -2.555337 -3.207448 4.28425 2.768808 9.696649 -7.925218 1.52061 21.31315 6.894712 3.247853 -25.37786 9.640316 4.867969 -19.31096 11.30667 87.28732 33.97031 -20.7857 -0 0 13.9229 -8.229846 8.432104 4.542633 6.951541 -21.40162 -2.206372 -91.48655 23.81679 19.22586 0 0 -20.76616 11.62922 15.88471 0.7527003
1.735372 104.5882 14.25299 -0.4112581 2.209978 -0.3547312 6.285062 -28.17561 6.162539 -0 21.65871 -0 -6.043732 -9.116702 -1.592028 -6.117878 13.90872 -18.82706 -0 8.592195 -0 7.893606 -19.10531 22.31676 -2.190723 -3.202843 4.183114 2.834668 9.63915 -8.17497 1.442552 21.01238 6.968688 3.251286 -25.56389 9.57938 4.561463 -19.04131 11.18569 87.91334 33.72509 -21.70711 -0 0 13.36221 -8.698918 8.776713 4.660517 7.034855 -21.81729 -2.345383 -90.88143 23.65537 18.70094 0 0 -22.07931 11.36667 15.41943 1.19339
